<?xml version="1.0" encoding="UTF-8"?>
<svg id="Layer_1" data-name="Layer 1" xmlns="http://www.w3.org/2000/svg" xmlns:xlink="http://www.w3.org/1999/xlink" viewBox="0 0 1716.84 551.85">
  <defs>
    <style>
      .cls-1 {
        fill: url(#linear-gradient-2);
      }

      .cls-2 {
        fill: #fff;
      }

      .cls-3 {
        fill: url(#linear-gradient-3);
      }

      .cls-4 {
        fill: url(#linear-gradient);
      }

      .cls-5 {
        fill: url(#linear-gradient-4);
      }
    </style>
    <linearGradient id="linear-gradient" x1="438.35" y1="467.64" x2="872.54" y2="-47.3" gradientUnits="userSpaceOnUse">
      <stop offset="0" stop-color="#1777bd"/>
      <stop offset="0" stop-color="#1a75bb"/>
      <stop offset=".23" stop-color="#6354a5"/>
      <stop offset=".33" stop-color="#80489c"/>
      <stop offset=".4" stop-color="#973d8e"/>
      <stop offset=".5" stop-color="#b6307c"/>
      <stop offset=".61" stop-color="#ce266e"/>
      <stop offset=".72" stop-color="#df1e64"/>
      <stop offset=".85" stop-color="#e91a5e"/>
      <stop offset="1" stop-color="#ed195d"/>
    </linearGradient>
    <linearGradient id="linear-gradient-2" x1="683.88" y1="108.14" x2="770.39" y2="21.63" gradientUnits="userSpaceOnUse">
      <stop offset="0" stop-color="#600032"/>
      <stop offset=".9" stop-color="#e51c61"/>
    </linearGradient>
    <linearGradient id="linear-gradient-3" x1="665.47" y1="303" x2="752.6" y2="390.13" gradientUnits="userSpaceOnUse">
      <stop offset="0" stop-color="#3c183d"/>
      <stop offset=".9" stop-color="#98428f"/>
    </linearGradient>
    <linearGradient id="linear-gradient-4" x1="732.97" y1="346.37" x2="799.06" y2="412.46" gradientUnits="userSpaceOnUse">
      <stop offset="0" stop-color="#994290" stop-opacity="0"/>
      <stop offset=".5" stop-color="#994290"/>
      <stop offset="1" stop-color="#98428f" stop-opacity="0"/>
    </linearGradient>
  </defs>
  <path class="cls-4" d="m677.38,140.12c8.54,5.8,24.56,14.04,46.66,14.04,33.21,0,53.85-19.48,55.02-20.62l87.18-87.38h-93.51l-79.18,75.03-24.1-21.24,82.72-85.47c3.46-3.41,8.13-5.32,12.99-5.32h145.68c7.48,0,14.22,4.5,17.09,11.41,2.87,6.91,1.29,14.86-3.99,20.16l-118.72,119c-1.26,1.27-31.85,31.43-81.16,31.43s-77.08-27.67-79.79-30.36h0s-116.51-115.52-116.51-115.52l-92.81-.08,154.31,157.65c7.05,7.21,7.04,18.73-.04,25.92l-154.98,157.41h92.28l116.96-114.35c5.74-7.05,28.92-31.05,78.6-31.05s67.21,15.66,79.41,26.02c1.26,1.07,2.46,2.09,3.56,2.97,12.58,10.1,101.55,103.38,119.26,121.98,5.1,5.36,6.52,13.24,3.61,20.05s-9.6,11.21-17,11.21h-143.66c-4.89,0-9.58-1.94-13.05-5.39l-83.87-86.47,25.38-20.96,79.18,75.81h92.75c-41.23-42.99-79.84-82.62-85.77-87.39-1.5-1.21-2.95-2.44-4.35-3.62-9.97-8.47-20.27-17.22-55.45-17.22-22.91,0-36.73,6.87-43.86,12.01l-26.55,25.78-104.68,102.34c-3.46,3.38-8.1,5.27-12.93,5.27h-144c-7.46,0-14.18-4.48-17.06-11.35-2.88-6.88-1.35-14.81,3.88-20.13l173.24-175.95L377.67,39.6c-5.21-5.32-6.72-13.25-3.83-20.12,2.89-6.86,9.61-11.32,17.05-11.32h.02l144.47.13c4.87,0,9.55,1.93,13.01,5.36l102,101.13,27,25.34Z"/>
  <path class="cls-1" d="m677.38,140.12l-27-25.34,101.78-100.3c3.46-3.41,8.13-5.32,12.99-5.32l7.58,37-95.35,93.96"/>
  <path class="cls-3" d="m678.2,289.78l96.67,96.23-7.64,37c-4.89,0-9.58-1.94-13.05-5.39l-102.53-102.06,26.55-25.78"/>
  <path class="cls-5" d="m822.88,386.01h-48.02l-40.09-39.91-27.41,24.92,46.81,46.6c3.47,3.45,8.16,5.39,13.05,5.39h57.32l-1.67-37Z"/>
  <g>
    <path class="cls-2" d="m79.88,199.33h72.32c38.81,0,63.5-25.28,63.5-60.56s-24.7-59.98-63.5-59.98H1.67S1.67,3.53,1.67,3.53h152.29c91.73,0,142.88,59.98,142.88,135.24,0,55.27-27.05,102.31-78.2,123.48l88.2,152.88h-88.2l-81.73-141.12h-57.04v141.12H1.67v-215.79h78.2Z"/>
    <path class="cls-2" d="m1089.59,239.57c10.36,59.47,52.46,101.46,116.87,101.46,45.28,0,79.38-19.99,99.96-52.92l70.56,35.28c-33.52,58.21-94.67,96.43-170.52,96.43-108.09,0-185.2-76.73-197.58-180.26h80.71Zm-77.8-77.62C1030.61,67.81,1104.84,0,1206.46,0c75.85,0,137,37.63,170.52,96.43l-70.56,35.28c-20.58-32.93-54.68-53.51-99.96-53.51-57.7,0-97.5,33.71-112.61,83.75h-82.06Z"/>
    <path class="cls-2" d="m1606.29,239.57v175.55h-78.2v-175.55h78.2Zm-78.2-77.62v-83.17h-110.54V3.53h299.29v75.26h-110.54v83.17h-78.2Z"/>
  </g>
  <g>
    <path class="cls-2" d="m0,550.39v-61.23h27.53c3.74,0,6.98.66,9.71,1.99s4.83,3.21,6.29,5.64c1.46,2.44,2.19,5.28,2.19,8.54,0,3.02-.6,5.71-1.81,8.05-1.21,2.34-2.87,4.19-4.98,5.54-2.11,1.35-4.49,2.09-7.13,2.24v-.86c2.34,0,4.39.4,6.16,1.21,1.77.81,3.2,2.01,4.28,3.59,1.08,1.58,1.74,3.51,1.99,5.77l1.25,11.27c.11,1.03.22,2.01.32,2.93.1.92.21,1.82.3,2.69s.2,1.75.31,2.63h-7.84c-.11-.96-.23-2-.35-3.11-.12-1.11-.24-2.24-.35-3.39-.03-.23-.06-.46-.08-.68-.03-.22-.05-.44-.06-.66l-.92-8.51c-.26-2.44-.79-4.39-1.58-5.85-.79-1.46-1.93-2.53-3.4-3.2s-3.37-1.01-5.69-1.01H4v-6.97h20.85c2.7,0,5.01-.43,6.94-1.28,1.93-.85,3.41-2.1,4.44-3.73,1.03-1.63,1.54-3.6,1.54-5.91,0-2.15-.44-3.97-1.33-5.45-.89-1.48-2.2-2.61-3.93-3.38-1.73-.77-3.84-1.15-6.33-1.15H4l3.75-3.18v57.45H0Z"/>
    <path class="cls-2" d="m73.07,550.39l23.02-61.23h8.76l22.94,61.23h-8.59l-14.26-40.94c-.7-1.99-1.34-3.89-1.94-5.7-.6-1.81-1.17-3.58-1.72-5.33-.55-1.75-1.11-3.58-1.68-5.48h1.75c-.5,1.78-1.03,3.53-1.57,5.26-.55,1.73-1.15,3.54-1.81,5.45-.66,1.91-1.34,3.84-2.03,5.81l-14.6,40.94h-8.26Zm11.1-17.97l2.5-6.97h28.03l2.34,6.97h-32.87Z"/>
    <path class="cls-2" d="m155.33,550.39v-61.23h21.44c6.49,0,11.9,1.23,16.23,3.69,4.32,2.46,7.54,5.97,9.65,10.52s3.16,10.03,3.16,16.4-1.1,11.72-3.32,16.29c-2.21,4.57-5.61,8.09-10.19,10.59s-10.34,3.74-17.28,3.74h-19.69Zm18.94-6.97c5.12,0,9.4-.75,12.86-2.25,3.45-1.5,6.11-3.99,7.97-7.47,1.86-3.48,2.78-8.13,2.78-13.93s-.94-10.6-2.83-14.07c-1.88-3.48-4.52-5.94-7.9-7.4-3.39-1.45-7.51-2.18-12.38-2.18h-11.68v47.3h11.18Z"/>
    <path class="cls-2" d="m231.57,550.39l24.36-35.35-.17,6.28-22.27-32.16h9.76l8.43,13.33c1.52,2.37,2.94,4.61,4.26,6.74,1.33,2.13,2.58,4.18,3.74,6.16l-3.92.09c1.36-2.15,2.74-4.32,4.12-6.51,1.38-2.19,2.73-4.35,4.06-6.47l8.68-13.33h9.34l-22.19,32.16v-6.11l23.69,35.17h-9.76l-9.68-15.74c-1.39-2.25-2.73-4.46-4.03-6.64-1.29-2.18-2.62-4.46-3.98-6.86l3.67-.09c-1.42,2.28-2.88,4.61-4.37,7-1.49,2.39-2.88,4.55-4.14,6.5l-10.26,15.82h-9.34Z"/>
    <path class="cls-2" d="m380.98,551.85c-5.7,0-10.67-1.37-14.92-4.11-4.25-2.74-7.51-6.54-9.78-11.39-2.27-4.86-3.41-10.38-3.41-16.58s1.15-11.73,3.45-16.52c2.3-4.79,5.57-8.53,9.8-11.2,4.23-2.67,9.16-4.01,14.78-4.01,4.32,0,8.31.8,11.97,2.41,3.66,1.61,6.68,3.89,9.07,6.85,2.39,2.96,3.91,6.41,4.57,10.35h-7.92c-.67-2.68-1.81-4.97-3.43-6.87-1.62-1.9-3.62-3.34-6-4.31s-5.02-1.46-7.92-1.46c-4.23,0-7.87.99-10.94,2.98-3.07,1.99-5.42,4.84-7.05,8.56-1.63,3.72-2.45,8.13-2.45,13.23s.81,9.56,2.44,13.34c1.63,3.78,3.97,6.68,7.04,8.72,3.07,2.04,6.72,3.05,10.96,3.05,3.31,0,6.24-.63,8.8-1.89,2.56-1.26,4.65-3.14,6.28-5.64,1.63-2.5,2.68-5.58,3.17-9.23h7.65c-.65,4.89-2.13,9.12-4.43,12.69s-5.3,6.3-9,8.2-7.94,2.85-12.72,2.85Z"/>
    <path class="cls-2" d="m434.03,550.39v-61.23h7.76v61.23h-7.76Z"/>
    <path class="cls-2" d="m472.23,550.39v-61.23h42.04v6.97h-34.29v47.3h35.04v6.97h-42.79Zm3.92-28.04v-6.97h35.45v6.97h-35.45Zm3.5-39.65l9.84-13.33h9.01l9.84,13.33h-8.51l-5.84-8.34-5.84,8.34h-8.51Z"/>
    <path class="cls-2" d="m542.22,550.39v-61.23h8.59l25.11,39.99c1.45,2.29,2.88,4.67,4.31,7.14,1.42,2.46,3.14,5.49,5.14,9.07.15.27.3.54.45.8.15.26.29.52.45.79h-3.75c-.01-.43-.03-.87-.04-1.31-.01-.44-.03-.89-.04-1.33-.1-2.91-.18-5.6-.24-8.07-.06-2.47-.09-4.83-.09-7.08v-39.99h7.34v61.23h-8.84l-22.02-35.26c-1.54-2.48-3.09-5.01-4.65-7.6-1.56-2.59-3.07-5.14-4.54-7.67-1.47-2.52-2.96-5.12-4.49-7.78h4.25c.08,2.57.16,5.15.22,7.76.06,2.61.11,5.19.15,7.73.03,2.54.05,5.06.05,7.56v35.26h-7.34Z"/>
    <path class="cls-2" d="m646.75,551.85c-5.7,0-10.67-1.37-14.92-4.11-4.25-2.74-7.51-6.54-9.78-11.39-2.27-4.86-3.41-10.38-3.41-16.58s1.15-11.73,3.45-16.52c2.3-4.79,5.57-8.53,9.8-11.2,4.23-2.67,9.16-4.01,14.78-4.01,4.32,0,8.31.8,11.97,2.41,3.66,1.61,6.68,3.89,9.07,6.85,2.39,2.96,3.91,6.41,4.57,10.35h-7.92c-.67-2.68-1.81-4.97-3.43-6.87-1.62-1.9-3.62-3.34-6-4.31-2.38-.97-5.02-1.46-7.92-1.46-4.23,0-7.87.99-10.94,2.98-3.07,1.99-5.42,4.84-7.05,8.56-1.63,3.72-2.45,8.13-2.45,13.23s.81,9.56,2.44,13.34c1.63,3.78,3.97,6.68,7.04,8.72s6.72,3.05,10.96,3.05c3.31,0,6.24-.63,8.8-1.89,2.56-1.26,4.65-3.14,6.28-5.64,1.63-2.5,2.68-5.58,3.17-9.23h7.65c-.65,4.89-2.13,9.12-4.43,12.69s-5.3,6.3-9,8.2-7.94,2.85-12.72,2.85Z"/>
    <path class="cls-2" d="m698.22,550.39v-61.23h7.76v61.23h-7.76Z"/>
    <path class="cls-2" d="m734.17,550.39l23.02-61.23h8.76l22.94,61.23h-8.59l-14.26-40.94c-.7-1.99-1.34-3.89-1.94-5.7-.6-1.81-1.17-3.58-1.72-5.33-.55-1.75-1.11-3.58-1.68-5.48h1.75c-.5,1.78-1.03,3.53-1.58,5.26-.55,1.73-1.15,3.54-1.81,5.45-.66,1.91-1.34,3.84-2.03,5.81l-14.6,40.94h-8.26Zm11.09-17.97l2.5-6.97h28.03l2.34,6.97h-32.87Z"/>
    <path class="cls-2" d="m881.99,551.76c-4.18,0-7.88-.74-11.09-2.21-3.21-1.48-5.71-3.58-7.5-6.32-1.79-2.74-2.68-5.94-2.68-9.61,0-3.1.62-5.87,1.86-8.33,1.24-2.46,3.17-4.58,5.79-6.37,2.62-1.79,5.97-3.2,10.04-4.21l4.34,4.9c-3.21.72-5.91,1.71-8.1,2.97-2.19,1.26-3.85,2.79-4.97,4.59s-1.69,3.87-1.69,6.2.55,4.29,1.66,6.06,2.73,3.17,4.88,4.19c2.15,1.02,4.72,1.53,7.73,1.53,1.9,0,3.77-.23,5.59-.7s3.64-1.33,5.44-2.58c1.81-1.25,3.47-3,4.98-5.24l5.17,4.39c-1.95,2.47-4.01,4.49-6.19,6.07s-4.53,2.76-7.04,3.53c-2.51.77-5.25,1.15-8.21,1.15Zm-6.51-34.31c-2-2.09-3.56-4.01-4.67-5.76-1.11-1.75-1.88-3.36-2.29-4.85-.42-1.48-.63-2.99-.63-4.53,0-2.82.67-5.32,2.01-7.5s3.21-3.87,5.61-5.06c2.4-1.2,5.14-1.79,8.23-1.79s5.82.58,8.24,1.74c2.42,1.16,4.31,2.82,5.66,4.97,1.36,2.15,2.03,4.64,2.03,7.48,0,2.64-.59,5.01-1.78,7.13-1.19,2.12-2.89,3.97-5.11,5.57-2.22,1.6-4.93,2.98-8.12,4.16l-4.17-5.07c2.67-.87,4.87-1.86,6.6-2.95,1.73-1.09,3.02-2.33,3.88-3.73s1.28-2.99,1.28-4.76c0-1.59-.39-2.98-1.16-4.16s-1.81-2.09-3.12-2.72c-1.31-.63-2.75-.95-4.32-.95s-2.91.29-4.17.87c-1.27.58-2.28,1.44-3.03,2.58-.76,1.14-1.14,2.51-1.14,4.12,0,.82.12,1.69.36,2.61s.69,1.94,1.33,3.03c.65,1.1,1.53,2.23,2.64,3.39l37.62,39.22h-10.18l-31.62-33.02Zm24.53,16.94c.62-1.16,1.16-2.37,1.59-3.61.44-1.25.79-2.53,1.06-3.84.27-1.31.49-2.7.66-4.16h7.4c-.26,2.01-.64,3.93-1.13,5.78-.49,1.85-1.12,3.66-1.91,5.43s-1.73,3.48-2.85,5.13l-4.84-4.73Z"/>
    <path class="cls-2" d="m984.09,496.12v-6.97h47.47v6.97h-47.47Zm19.85,54.27v-57.79h7.76v57.79h-7.76Z"/>
    <path class="cls-2" d="m1058.84,550.39v-61.23h42.04v6.97h-34.29v47.3h35.04v6.97h-42.79Zm3.92-28.04v-6.97h35.45v6.97h-35.45Z"/>
    <path class="cls-2" d="m1154.44,551.85c-5.7,0-10.67-1.37-14.92-4.11-4.25-2.74-7.51-6.54-9.78-11.39-2.27-4.86-3.41-10.38-3.41-16.58s1.15-11.73,3.45-16.52c2.3-4.79,5.57-8.53,9.8-11.2,4.23-2.67,9.16-4.01,14.78-4.01,4.32,0,8.31.8,11.97,2.41,3.66,1.61,6.68,3.89,9.07,6.85,2.39,2.96,3.91,6.41,4.57,10.35h-7.92c-.67-2.68-1.81-4.97-3.43-6.87-1.62-1.9-3.62-3.34-6-4.31-2.38-.97-5.02-1.46-7.92-1.46-4.23,0-7.87.99-10.94,2.98-3.07,1.99-5.42,4.84-7.05,8.56-1.63,3.72-2.45,8.13-2.45,13.23s.81,9.56,2.44,13.34c1.63,3.78,3.97,6.68,7.04,8.72s6.72,3.05,10.96,3.05c3.31,0,6.24-.63,8.8-1.89,2.56-1.26,4.65-3.14,6.28-5.64,1.63-2.5,2.68-5.58,3.17-9.23h7.65c-.65,4.89-2.13,9.12-4.43,12.69s-5.3,6.3-9,8.2-7.94,2.85-12.72,2.85Z"/>
    <path class="cls-2" d="m1206.57,550.39v-61.23h8.59l25.11,39.99c1.45,2.29,2.88,4.67,4.31,7.14,1.42,2.46,3.14,5.49,5.14,9.07.15.27.3.54.45.8.15.26.29.52.45.79h-3.75c-.01-.43-.03-.87-.04-1.31-.01-.44-.03-.89-.04-1.33-.1-2.91-.18-5.6-.24-8.07-.06-2.47-.09-4.83-.09-7.08v-39.99h7.34v61.23h-8.84l-22.02-35.26c-1.54-2.48-3.09-5.01-4.65-7.6-1.56-2.59-3.07-5.14-4.54-7.67-1.47-2.52-2.96-5.12-4.49-7.78h4.25c.08,2.57.16,5.15.22,7.76.06,2.61.11,5.19.15,7.73.03,2.54.05,5.06.05,7.56v35.26h-7.34Z"/>
    <path class="cls-2" d="m1311.1,551.85c-5.46,0-10.32-1.37-14.57-4.1-4.25-2.73-7.55-6.53-9.92-11.39-2.36-4.87-3.54-10.4-3.54-16.59s1.18-11.61,3.54-16.42c2.36-4.81,5.67-8.56,9.92-11.27,4.25-2.7,9.1-4.05,14.57-4.05s10.37,1.35,14.63,4.05c4.26,2.7,7.57,6.46,9.94,11.27,2.36,4.81,3.54,10.28,3.54,16.42s-1.18,11.79-3.54,16.65c-2.36,4.87-5.68,8.65-9.94,11.36-4.26,2.71-9.14,4.06-14.63,4.06Zm.08-6.97c3.96,0,7.46-1.02,10.5-3.06,3.04-2.04,5.4-4.96,7.08-8.74,1.68-3.78,2.52-8.22,2.52-13.31s-.85-9.31-2.55-13.06c-1.7-3.75-4.08-6.64-7.12-8.66s-6.52-3.04-10.43-3.04-7.43,1.01-10.48,3.04-5.43,4.92-7.14,8.66c-1.71,3.75-2.57,8.1-2.57,13.06s.86,9.42,2.57,13.22c1.71,3.8,4.09,6.73,7.14,8.79,3.05,2.06,6.54,3.1,10.48,3.1Z"/>
    <path class="cls-2" d="m1368.16,550.39v-61.23h7.76v54.27h30.95v6.97h-38.71Z"/>
    <path class="cls-2" d="m1461.5,551.85c-5.46,0-10.32-1.37-14.57-4.1-4.25-2.73-7.55-6.53-9.92-11.39-2.36-4.87-3.54-10.4-3.54-16.59s1.18-11.61,3.54-16.42c2.36-4.81,5.67-8.56,9.92-11.27,4.25-2.7,9.1-4.05,14.57-4.05s10.37,1.35,14.63,4.05c4.26,2.7,7.57,6.46,9.94,11.27,2.36,4.81,3.54,10.28,3.54,16.42s-1.18,11.79-3.54,16.65c-2.36,4.87-5.68,8.65-9.94,11.36-4.26,2.71-9.14,4.06-14.63,4.06Zm.08-6.97c3.96,0,7.46-1.02,10.5-3.06,3.04-2.04,5.4-4.96,7.08-8.74,1.68-3.78,2.52-8.22,2.52-13.31s-.85-9.31-2.55-13.06c-1.7-3.75-4.08-6.64-7.12-8.66s-6.52-3.04-10.43-3.04-7.43,1.01-10.48,3.04-5.43,4.92-7.14,8.66c-1.71,3.75-2.57,8.1-2.57,13.06s.86,9.42,2.57,13.22c1.71,3.8,4.09,6.73,7.14,8.79,3.05,2.06,6.54,3.1,10.48,3.1Z"/>
    <path class="cls-2" d="m1545.42,551.76c-5.42,0-10.26-1.3-14.51-3.89-4.25-2.59-7.58-6.32-9.99-11.17-2.41-4.85-3.61-10.55-3.61-17.1s1.14-11.8,3.41-16.55c2.27-4.76,5.56-8.45,9.87-11.07,4.31-2.62,9.42-3.93,15.33-3.93,4.48,0,8.5.77,12.08,2.3,3.58,1.53,6.5,3.74,8.76,6.61,2.26,2.87,3.71,6.27,4.35,10.18l-7.51.52c-.57-2.82-1.67-5.17-3.31-7.03s-3.64-3.24-6.03-4.12c-2.38-.88-5.03-1.32-7.94-1.32-4.48,0-8.3,1-11.46,3-3.16,2-5.56,4.85-7.2,8.55-1.63,3.7-2.45,8.08-2.45,13.14s.79,9.3,2.36,13.03,3.89,6.62,6.95,8.66c3.06,2.05,6.74,3.08,11.05,3.08,3.87,0,7.15-.83,9.85-2.5,2.7-1.67,4.8-4.07,6.3-7.21,1.49-3.14,2.39-6.92,2.7-11.35h4.84v3.27c-.53,4.73-1.7,8.96-3.5,12.69s-4.4,6.7-7.79,8.92c-3.39,2.22-7.57,3.33-12.57,3.33Zm20.61-1.38l-1.5-9.55v-16.25h-18.02v-6.97h25.69v32.77h-6.17Z"/>
    <path class="cls-2" d="m1599.98,550.39v-61.23h7.76v61.23h-7.76Z"/>
    <path class="cls-2" d="m1635.77,550.39l23.02-61.23h8.76l22.94,61.23h-8.59l-14.26-40.94c-.7-1.99-1.34-3.89-1.94-5.7-.6-1.81-1.17-3.58-1.72-5.33-.55-1.75-1.11-3.58-1.68-5.48h1.75c-.5,1.78-1.03,3.53-1.58,5.26-.55,1.73-1.15,3.54-1.81,5.45-.66,1.91-1.34,3.84-2.03,5.81l-14.6,40.94h-8.26Zm11.09-17.97l2.5-6.97h28.03l2.34,6.97h-32.87Z"/>
  </g>
</svg>