<?xml version="1.0" encoding="UTF-8"?>
<svg id="Layer_5" data-name="Layer 5" xmlns="http://www.w3.org/2000/svg" viewBox="0 0 557.85 415.81">
  <defs>
    <style>
      .cls-1 {
        fill: #fff;
      }
    </style>
  </defs>
  <path class="cls-1" d="m305.84,132.35c8.54,5.8,24.56,14.04,46.66,14.04,33.21,0,53.85-19.48,55.02-20.62l87.18-87.38h-93.51l-79.18,75.03-24.1-21.24L380.62,6.72c3.46-3.41,8.13-5.32,12.99-5.32h145.68c7.48,0,14.22,4.5,17.09,11.41,2.87,6.91,1.29,14.86-3.99,20.16l-118.72,119c-1.26,1.27-31.85,31.43-81.16,31.43s-77.08-27.67-79.79-30.36h0s-116.51-115.52-116.51-115.52l-92.81-.08,154.31,157.65c7.05,7.21,7.04,18.73-.04,25.92L62.68,378.41h92.28l116.96-114.35c5.74-7.05,28.92-31.05,78.6-31.05s67.21,15.66,79.41,26.02c1.26,1.07,2.46,2.09,3.56,2.97,12.58,10.1,101.55,103.38,119.26,121.98,5.1,5.36,6.52,13.24,3.61,20.05s-9.6,11.21-17,11.21h-143.66c-4.89,0-9.58-1.94-13.05-5.39l-83.87-86.47,25.38-20.96,79.18,75.81h92.75c-41.23-42.99-79.84-82.62-85.77-87.39-1.5-1.21-2.95-2.44-4.35-3.62-9.97-8.47-20.27-17.22-55.45-17.22-22.91,0-36.73,6.87-43.86,12.01l-26.55,25.78-104.68,102.34c-3.46,3.38-8.1,5.27-12.93,5.27H18.5c-7.46,0-14.18-4.48-17.06-11.35-2.88-6.88-1.35-14.81,3.88-20.13l173.24-175.95L6.13,31.83C.92,26.51-.59,18.58,2.3,11.71,5.19,4.85,11.91.39,19.35.39h.02l144.47.13c4.87,0,9.55,1.93,13.01,5.36l102,101.13,27,25.34Z"/>
  <path class="cls-1" d="m305.84,132.35l-27-25.34L380.62,6.72c3.46-3.41,8.13-5.32,12.99-5.32l7.58,37-95.35,93.96"/>
  <path class="cls-1" d="m306.66,282.02l96.67,96.23-7.64,37c-4.89,0-9.58-1.94-13.05-5.39l-102.53-102.06,26.55-25.78"/>
  <path class="cls-1" d="m451.35,378.24h-48.02l-40.09-39.91-27.41,24.92,46.81,46.6c3.47,3.45,8.16,5.39,13.05,5.39h57.32l-1.67-37Z"/>
</svg>