<svg width="16" height="17" viewBox="0 0 16 17" fill="none" xmlns="http://www.w3.org/2000/svg">
<path d="M8 0.5C7.80573 0.500025 7.61955 0.590055 7.48295 0.750004L0.147724 8.16119C0.0548218 8.24056 -7.272e-06 8.36632 7.23419e-10 8.5C7.23419e-10 8.73254 0.162807 8.92105 0.363636 8.92105H2.18182V15.6579C2.18182 16.1227 2.50764 16.5 2.90909 16.5H5.81818C6.21964 16.5 6.54545 16.1227 6.54545 15.6579V10.6053H9.45455V15.6579C9.45455 16.1227 9.78036 16.5 10.1818 16.5H13.0909C13.4924 16.5 13.8182 16.1227 13.8182 15.6579V8.92105H15.6364C15.8372 8.92105 16 8.73254 16 8.5C16 8.36631 15.9452 8.24056 15.8523 8.16119L8.52131 0.754939C8.5199 0.753289 8.51847 0.751646 8.51705 0.750004C8.38045 0.590055 8.19427 0.500025 8 0.5Z" fill="#DA87C9"/>
</svg>
