<svg width="16" height="16" viewBox="0 0 16 16" fill="none" xmlns="http://www.w3.org/2000/svg">
<path d="M8 0C7.80573 2.52632e-05 7.61955 0.0900547 7.48295 0.250004L0.147724 7.66119C0.0548218 7.74056 -7.272e-06 7.86632 7.23419e-10 8C7.23419e-10 8.23254 0.162807 8.42105 0.363636 8.42105H2.18182V15.1579C2.18182 15.6227 2.50764 16 2.90909 16H5.81818C6.21964 16 6.54545 15.6227 6.54545 15.1579V10.1053H9.45455V15.1579C9.45455 15.6227 9.78036 16 10.1818 16H13.0909C13.4924 16 13.8182 15.6227 13.8182 15.1579V8.42105H15.6364C15.8372 8.42105 16 8.23254 16 8C16 7.86631 15.9452 7.74056 15.8523 7.66119L8.52131 0.254939C8.5199 0.253289 8.51847 0.251646 8.51705 0.250004C8.38045 0.0900547 8.19427 2.52632e-05 8 0Z" fill="white"/>
</svg>
