<svg width="20" height="21" viewBox="0 0 20 21" fill="none" xmlns="http://www.w3.org/2000/svg">
<g clip-path="url(#clip0_323_1848)">
<path fill-rule="evenodd" clip-rule="evenodd" d="M10.8833 13.8833C10.6489 14.1174 10.3312 14.2489 9.99992 14.2489C9.66867 14.2489 9.35096 14.1174 9.11658 13.8833L4.40158 9.16999C4.1672 8.93549 4.03557 8.61749 4.03564 8.28594C4.03572 7.9544 4.1675 7.63646 4.402 7.40207C4.6365 7.16769 4.9545 7.03605 5.28605 7.03613C5.61759 7.03621 5.93553 7.16799 6.16992 7.40249L9.99992 11.2325L13.8299 7.40249C14.0656 7.17468 14.3813 7.04853 14.709 7.05123C15.0368 7.05392 15.3503 7.18523 15.5822 7.41688C15.8141 7.64854 15.9457 7.96199 15.9487 8.28974C15.9517 8.61748 15.8258 8.9333 15.5983 9.16916L10.8841 13.8842L10.8833 13.8833Z" fill="white"/>
</g>
<defs>
<clipPath id="clip0_323_1848">
<rect width="20" height="20" fill="white" transform="translate(0 0.5)"/>
</clipPath>
</defs>
</svg>
