<svg width="1086" height="148" viewBox="0 0 1086 148" fill="none" xmlns="http://www.w3.org/2000/svg">
<path d="M1 82.802L8.52778 72.6035C16.0556 62.405 31.1111 42.008 46.1667 30.0692C61.2222 18.1305 76.2778 14.6501 91.3333 31.0971C106.389 47.544 121.444 83.9183 136.5 104.312C151.556 124.706 166.611 129.12 181.667 126.507C196.722 123.895 211.778 114.256 226.833 94.9283C241.889 75.601 256.944 46.5855 272 53.4095C287.056 60.2334 302.111 102.897 317.167 98.1366C332.222 93.3764 347.278 41.1929 362.333 32.1363C377.389 23.0797 392.444 57.15 407.5 55.7115C422.556 54.273 437.611 17.3256 452.667 5.3577C467.722 -6.61021 482.778 6.40137 497.833 40.3504C512.889 74.2995 527.944 129.186 543 133.885C558.056 138.584 573.111 93.0957 588.167 60.5598C603.222 28.0238 618.278 8.44043 633.333 30.895C648.389 53.3495 663.444 117.842 678.5 138.775C693.556 159.709 708.611 137.083 723.667 111.148C738.722 85.2125 753.778 55.9678 768.833 48.6927C783.889 41.4176 798.944 56.1121 814 81.319C829.056 106.526 844.111 142.245 859.167 127.685C874.222 113.124 889.278 48.2838 904.333 33.4009C919.389 18.5179 934.444 53.5923 949.5 65.9183C964.556 78.2444 979.611 67.8222 994.667 47.7018C1009.72 27.5814 1024.78 -2.23725 1039.83 4.57178C1054.89 11.3808 1069.94 54.8175 1077.47 76.5358L1085 98.2542" stroke="#15D5FF" stroke-width="2"/>
</svg>
