<svg width="140" height="141" viewBox="0 0 140 141" fill="none" xmlns="http://www.w3.org/2000/svg">
<path d="M38.9988 107.686L57.6232 89.0612L51.4369 82.875L32.8125 101.499L29.3432 98.03C28.5227 97.2098 27.4101 96.7491 26.25 96.7491C25.0899 96.7491 23.9774 97.2098 23.1569 98.03L5.65692 115.53C4.83673 116.35 4.37598 117.463 4.37598 118.623C4.37598 119.783 4.83673 120.896 5.65692 121.716L18.7819 134.841C19.6024 135.661 20.7149 136.122 21.875 136.122C23.0351 136.122 24.1477 135.661 24.9682 134.841L42.4682 117.341C43.2884 116.521 43.7491 115.408 43.7491 114.248C43.7491 113.088 43.2884 111.975 42.4682 111.155L38.9988 107.686ZM21.875 125.562L14.9363 118.623L26.25 107.309L33.1888 114.248L21.875 125.562Z" fill="#005EFF"/>
<path d="M105 131.752C98.041 131.744 91.3689 128.975 86.4479 124.054C81.5268 119.133 78.7586 112.461 78.7505 105.502C78.7503 103.215 79.0594 100.938 79.6692 98.7337L41.773 60.833C39.5652 61.4331 37.2884 61.742 35.0005 61.7518C30.7236 61.7689 26.5078 60.7365 22.7228 58.7452C18.9378 56.7538 15.699 53.8643 13.2906 50.33C10.8821 46.7957 9.37749 42.7246 8.90859 38.4734C8.43969 34.2223 9.02084 29.9211 10.6011 25.9468L13.0423 19.7299L27.5324 34.2199C28.3652 35.0163 29.4731 35.4608 30.6255 35.4608C31.7778 35.4608 32.8857 35.0163 33.7186 34.2199C34.5388 33.3995 34.9995 32.2869 34.9995 31.1268C34.9995 29.9667 34.5388 28.8541 33.7186 28.0337L19.2198 13.5349L25.4455 11.098C29.4201 9.51877 33.7215 8.93851 37.9725 9.40811C42.2235 9.87772 46.2945 11.3829 49.8286 13.7916C53.3627 16.2003 56.252 19.4392 58.2434 23.2242C60.2347 27.0092 61.2672 31.2249 61.2505 35.5018C61.2506 37.7889 60.9416 40.0656 60.3317 42.2699L98.2323 80.1705C100.439 79.5708 102.714 79.262 105 79.2518C109.277 79.2347 113.493 80.2671 117.278 82.2584C121.063 84.2498 124.302 87.1393 126.71 90.6736C129.119 94.2079 130.623 98.279 131.092 102.53C131.561 106.781 130.98 111.083 129.4 115.057L126.963 121.274L112.469 106.784C111.636 105.989 110.529 105.545 109.378 105.545C108.226 105.545 107.119 105.989 106.287 106.784C105.466 107.604 105.004 108.716 105.004 109.876C105.003 111.036 105.463 112.149 106.282 112.97L120.777 127.464L114.555 129.906C111.513 131.111 108.273 131.737 105 131.752ZM44.0261 50.7093L89.7886 96.4805L88.743 99.1449C87.7183 101.706 87.3178 104.475 87.5744 107.222C87.8311 109.969 88.7376 112.615 90.2191 114.942C91.7005 117.27 93.7144 119.211 96.0944 120.607C98.4745 122.002 101.152 122.811 103.907 122.967L100.096 119.161C98.8771 117.942 97.9101 116.495 97.2504 114.902C96.5907 113.31 96.2511 111.603 96.2511 109.879C96.2511 108.155 96.5907 106.448 97.2504 104.856C97.9101 103.263 98.8771 101.816 100.096 100.597C102.595 98.208 105.92 96.8745 109.378 96.8745C112.835 96.8745 116.16 98.208 118.659 100.597L122.465 104.408C122.309 101.653 121.499 98.9756 120.103 96.5957C118.708 94.2157 116.766 92.2019 114.438 90.7205C112.111 89.2391 109.464 88.3327 106.717 88.076C103.97 87.8193 101.201 88.2198 98.6392 89.2443L95.9749 90.2899L50.2123 44.5274L51.2623 41.8587C52.2861 39.2968 52.6858 36.5281 52.4284 33.7813C52.1711 31.0345 51.2641 28.3883 49.7823 26.0611C48.3006 23.734 46.2865 21.7926 43.9065 20.3974C41.5264 19.0021 38.8487 18.193 36.0942 18.0368L39.9005 21.843C41.1195 23.0618 42.0865 24.5088 42.7462 26.1014C43.4059 27.6939 43.7455 29.4008 43.7455 31.1246C43.7455 32.8484 43.4059 34.5553 42.7462 36.1478C42.0865 37.7404 41.1195 39.1874 39.9005 40.4062C37.4012 42.7956 34.0766 44.1291 30.6189 44.1291C27.1612 44.1291 23.8366 42.7956 21.3373 40.4062L17.5311 36.5955C17.687 39.35 18.496 42.0278 19.8913 44.4078C21.2866 46.7878 23.2281 48.8018 25.5554 50.2832C27.8827 51.7647 30.5292 52.6712 33.276 52.9278C36.0229 53.1845 38.7915 52.784 41.353 51.7593L44.0261 50.7093Z" fill="#005EFF"/>
<path d="M127.413 12.969C124.914 10.5796 121.589 9.24609 118.132 9.24609C114.674 9.24609 111.349 10.5796 108.85 12.969L76.125 45.694L82.3112 51.8803L115.036 19.1553C115.87 18.3599 116.977 17.9161 118.129 17.9161C119.281 17.9161 120.389 18.3599 121.223 19.1553C122.043 19.9757 122.503 21.0883 122.503 22.2484C122.503 23.4085 122.043 24.5211 121.223 25.3415L88.4975 58.0665L94.6838 64.2572L127.409 31.5322C129.867 29.069 131.248 25.7309 131.248 22.2506C131.248 18.7703 129.872 15.4322 127.413 12.969Z" fill="#005EFF"/>
</svg>
