<svg width="15" height="15" viewBox="0 0 15 15" fill="none" xmlns="http://www.w3.org/2000/svg">
<path fill-rule="evenodd" clip-rule="evenodd" d="M5.16667 3.41797C4.85725 3.41797 4.5605 3.54089 4.34171 3.75968C4.12292 3.97847 4 4.27522 4 4.58464V10.418C4 10.7274 4.12292 11.0241 4.34171 11.2429C4.5605 11.4617 4.85725 11.5846 5.16667 11.5846H5.75C6.05942 11.5846 6.35617 11.4617 6.57496 11.2429C6.79375 11.0241 6.91667 10.7274 6.91667 10.418V4.58464C6.91667 4.27522 6.79375 3.97847 6.57496 3.75968C6.35617 3.54089 6.05942 3.41797 5.75 3.41797H5.16667ZM9.25 3.41797C8.94058 3.41797 8.64383 3.54089 8.42504 3.75968C8.20625 3.97847 8.08333 4.27522 8.08333 4.58464V10.418C8.08333 10.7274 8.20625 11.0241 8.42504 11.2429C8.64383 11.4617 8.94058 11.5846 9.25 11.5846H9.83333C10.1428 11.5846 10.4395 11.4617 10.6583 11.2429C10.8771 11.0241 11 10.7274 11 10.418V4.58464C11 4.27522 10.8771 3.97847 10.6583 3.75968C10.4395 3.54089 10.1428 3.41797 9.83333 3.41797H9.25Z" fill="white"/>
</svg>
