<svg width="15" height="15" viewBox="0 0 15 15" fill="none" xmlns="http://www.w3.org/2000/svg">
<g clip-path="url(#clip0_2722_11918)">
<path fill-rule="evenodd" clip-rule="evenodd" d="M9.39383 5.50146C9.46771 5.48237 9.54613 5.493 9.61227 5.53105C9.67841 5.56911 9.727 5.63158 9.74762 5.70505C9.84448 6.05177 9.85979 6.4162 9.79238 6.76982C9.72496 7.12345 9.57663 7.45668 9.35899 7.74344C9.14136 8.03021 8.86033 8.26272 8.53788 8.4228C8.21543 8.58288 7.86032 8.66618 7.50033 8.66618C7.14033 8.66618 6.78522 8.58288 6.46277 8.4228C6.14032 8.26272 5.85929 8.03021 5.64166 7.74344C5.42402 7.45668 5.2757 7.12345 5.20828 6.76982C5.14086 6.4162 5.15618 6.05177 5.25303 5.70505C5.27365 5.63158 5.32224 5.56911 5.38838 5.53105C5.45452 5.493 5.53294 5.48237 5.60683 5.50146C6.69241 5.78146 8.30824 5.78146 9.39383 5.50146ZM5.76199 6.13496C5.73411 6.3799 5.75829 6.62796 5.83295 6.8629C5.90761 7.09783 6.03106 7.31435 6.19522 7.49825C6.35938 7.68216 6.56054 7.82931 6.78553 7.93006C7.01051 8.03081 7.25425 8.08289 7.50076 8.08289C7.74728 8.08289 7.99101 8.03081 8.216 7.93006C8.44098 7.82931 8.64215 7.68216 8.8063 7.49825C8.97046 7.31435 9.09392 7.09783 9.16858 6.8629C9.24323 6.62796 9.26742 6.3799 9.23953 6.13496C8.18458 6.34788 6.81666 6.34788 5.76199 6.13496Z" fill="white"/>
<path fill-rule="evenodd" clip-rule="evenodd" d="M6.04167 8.80958C4.29546 9.11437 2.25 9.89254 2.25 11V12.75H12.75V11C12.75 9.89254 10.7045 9.11437 8.95833 8.80958V10.125H6.04167V8.80958ZM4.29167 12.75V10.125H4.875V12.75H4.29167ZM10.4167 10.125V12.75H11V10.125H10.4167ZM7.79167 2.26692V3.55667C7.79167 3.63402 7.76094 3.70821 7.70624 3.76291C7.65154 3.8176 7.57735 3.84833 7.5 3.84833C7.42265 3.84833 7.34846 3.8176 7.29376 3.76291C7.23906 3.70821 7.20833 3.63402 7.20833 3.55667V2.25C6.90719 2.26575 6.6111 2.33385 6.33333 2.45125V4.14C6.33333 4.21735 6.3026 4.29154 6.24791 4.34624C6.19321 4.40094 6.11902 4.43167 6.04167 4.43167C5.96431 4.43167 5.89012 4.40094 5.83543 4.34624C5.78073 4.29154 5.75 4.21735 5.75 4.14V2.81437C5.35042 3.15796 5.12 3.60362 5.04679 3.99417L5.03979 4.035L5.03396 4.04083C5.008 4.22429 5.02229 4.37537 5.05963 4.47921C5.08354 4.55146 5.07826 4.63019 5.04493 4.69861C5.01159 4.76702 4.95283 4.8197 4.8812 4.84539C4.80956 4.87109 4.73072 4.86776 4.6615 4.83613C4.59228 4.8045 4.53817 4.74706 4.51071 4.67608L4.49671 4.63525C2.803 6.84667 12.2063 6.8455 10.5004 4.63146L10.4864 4.67404C10.4595 4.74528 10.4058 4.80317 10.3368 4.83536C10.2678 4.86754 10.1889 4.87147 10.1171 4.8463C10.0452 4.82113 9.98605 4.76885 9.95222 4.70064C9.91838 4.63243 9.91256 4.55369 9.936 4.48125C9.978 4.3605 9.99025 4.21 9.9675 4.04375L9.96225 4.03996C9.89925 3.64562 9.6595 3.20958 9.25 2.866V4.14C9.25 4.21735 9.21927 4.29154 9.16457 4.34624C9.10987 4.40094 9.03569 4.43167 8.95833 4.43167C8.88098 4.43167 8.80679 4.40094 8.75209 4.34624C8.6974 4.29154 8.66667 4.21735 8.66667 4.14V2.50142C8.55277 2.4503 8.43554 2.40693 8.31579 2.37162C8.14441 2.3217 7.96906 2.28686 7.79167 2.26692Z" fill="white"/>
</g>
<defs>
<clipPath id="clip0_2722_11918">
<rect width="14" height="14" fill="white" transform="translate(0.5 0.5)"/>
</clipPath>
</defs>
</svg>
