<svg width="25" height="24" viewBox="0 0 25 24" fill="none" xmlns="http://www.w3.org/2000/svg">
<path d="M6.5 2H15.5C16.0304 2 16.5391 2.21071 16.9142 2.58579C17.2893 2.96086 17.5 3.46957 17.5 4V5C17.5 5.26522 17.3946 5.51957 17.2071 5.70711C17.0196 5.89464 16.7652 6 16.5 6C16.2348 6 15.9804 5.89464 15.7929 5.70711C15.6054 5.51957 15.5 5.26522 15.5 5V4H6.5V20H15.5V19C15.5 18.7348 15.6054 18.4804 15.7929 18.2929C15.9804 18.1054 16.2348 18 16.5 18C16.7652 18 17.0196 18.1054 17.2071 18.2929C17.3946 18.4804 17.5 18.7348 17.5 19V20C17.5 20.5304 17.2893 21.0391 16.9142 21.4142C16.5391 21.7893 16.0304 22 15.5 22H6.5C5.96957 22 5.46086 21.7893 5.08579 21.4142C4.71071 21.0391 4.5 20.5304 4.5 20V4C4.5 3.46957 4.71071 2.96086 5.08579 2.58579C5.46086 2.21071 5.96957 2 6.5 2Z" fill="black"/>
<path d="M17.295 16.2951C17.685 16.6851 18.315 16.6851 18.705 16.2951L22.293 12.7071C22.4805 12.5196 22.5858 12.2653 22.5858 12.0001C22.5858 11.735 22.4805 11.4807 22.293 11.2931L18.705 7.70513C18.5149 7.53332 18.2661 7.44112 18.0099 7.44758C17.7538 7.45405 17.5099 7.55869 17.3287 7.73987C17.1476 7.92104 17.0429 8.16491 17.0365 8.42106C17.03 8.6772 17.1222 8.92604 17.294 9.11613L19.17 11.0001H10.5C10.2348 11.0001 9.98043 11.1055 9.79289 11.293C9.60536 11.4806 9.5 11.7349 9.5 12.0001C9.5 12.2653 9.60536 12.5197 9.79289 12.7072C9.98043 12.8948 10.2348 13.0001 10.5 13.0001H19.17L17.294 14.8841C17.1073 15.0715 17.0026 15.3253 17.0028 15.5898C17.003 15.8543 17.1081 16.108 17.295 16.2951Z" fill="black"/>
</svg>
