<svg width="28" height="29" viewBox="0 0 28 29" fill="none" xmlns="http://www.w3.org/2000/svg">
<path d="M8.16648 23.8331V10.9706C8.16648 10.329 8.39981 9.78453 8.86648 9.33731C9.33315 8.89009 9.88731 8.66648 10.529 8.66648H23.3331C23.9748 8.66648 24.5243 8.89476 24.9816 9.35131C25.439 9.80787 25.6673 10.3574 25.6665 10.9998V20.3331L19.8331 26.1665H10.4998C9.85815 26.1665 9.30903 25.9382 8.85248 25.4816C8.39592 25.0251 8.16726 24.4756 8.16648 23.8331ZM2.36231 7.79148C2.24565 7.14981 2.37203 6.57153 2.74148 6.05665C3.11092 5.54176 3.61648 5.22559 4.25815 5.10815L16.9165 2.86231C17.5581 2.74565 18.1368 2.87203 18.6525 3.24148C19.1681 3.61092 19.4839 4.11648 19.5998 4.75815L19.8915 6.33315H17.4998L17.2956 5.16648L4.66648 7.41231L5.83315 14.004V22.1415C5.52203 21.9665 5.25487 21.7331 5.03165 21.4415C4.80842 21.1498 4.66726 20.8193 4.60815 20.4498L2.36231 7.79148ZM10.4998 10.9998V23.8331H18.6665V19.1665H23.3331V10.9998H10.4998Z" fill="white"/>
</svg>
