<svg width="15" height="15" viewBox="0 0 15 15" fill="none" xmlns="http://www.w3.org/2000/svg">
<path d="M7.50033 1.66797C10.7087 1.66797 13.3337 4.29297 13.3337 7.5013C13.3337 10.7096 10.7087 13.3346 7.50033 13.3346C4.29199 13.3346 1.66699 10.7096 1.66699 7.5013C1.66699 4.29297 4.29199 1.66797 7.50033 1.66797ZM7.50033 2.83464C6.39199 2.83464 5.40033 3.18464 4.64199 3.8263L11.1753 10.3596C11.7587 9.54297 12.167 8.5513 12.167 7.5013C12.167 4.93464 10.067 2.83464 7.50033 2.83464ZM10.3587 11.1763L3.82533 4.64297C3.18366 5.4013 2.83366 6.39297 2.83366 7.5013C2.83366 10.068 4.93366 12.168 7.50033 12.168C8.60866 12.168 9.60033 11.818 10.3587 11.1763Z" fill="white"/>
</svg>
