<svg width="15" height="15" viewBox="0 0 15 15" fill="none" xmlns="http://www.w3.org/2000/svg">
<g clip-path="url(#clip0_2722_11980)">
<path d="M6.91699 1.66797C6.14344 1.66797 5.40158 1.97526 4.8546 2.52224C4.30762 3.06922 4.00033 3.81109 4.00033 4.58464C4.00033 5.35818 4.30762 6.10005 4.8546 6.64703C5.40158 7.19401 6.14344 7.5013 6.91699 7.5013C7.69054 7.5013 8.43241 7.19401 8.97939 6.64703C9.52637 6.10005 9.83366 5.35818 9.83366 4.58464C9.83366 3.81109 9.52637 3.06922 8.97939 2.52224C8.43241 1.97526 7.69054 1.66797 6.91699 1.66797ZM6.91699 8.08464C5.51991 8.08464 4.24824 8.48947 3.31316 9.05997C2.84649 9.34464 2.44749 9.68064 2.15933 10.0458C1.87583 10.404 1.66699 10.8339 1.66699 11.293C1.66699 11.7859 1.90674 12.1744 2.25208 12.4515C2.57874 12.714 3.00983 12.8878 3.46774 13.0091C4.38824 13.2524 5.61674 13.3346 6.91699 13.3346L7.31658 13.3317C7.41427 13.3304 7.51006 13.3045 7.59516 13.2565C7.68026 13.2085 7.75194 13.1399 7.80362 13.057C7.8553 12.9741 7.88532 12.8795 7.89093 12.782C7.89655 12.6844 7.87757 12.587 7.83574 12.4987C7.61455 12.0305 7.49999 11.5191 7.50033 11.0013C7.50033 10.271 7.72374 9.5943 8.10524 9.03372C8.16195 8.95041 8.19611 8.85384 8.20439 8.7534C8.21267 8.65297 8.19479 8.5521 8.15249 8.46064C8.11019 8.36917 8.04492 8.29022 7.96303 8.23148C7.88115 8.17274 7.78544 8.13622 7.68524 8.12547C7.43402 8.09825 7.17794 8.08464 6.91699 8.08464ZM11.1847 8.69772C11.065 8.65787 10.9357 8.65787 10.816 8.69772L9.06599 9.28105C8.94979 9.31976 8.84872 9.39405 8.7771 9.49341C8.70549 9.59278 8.66696 9.71216 8.66699 9.83464V10.8094C8.66691 11.4333 8.89692 12.0354 9.31301 12.5003C9.7291 12.9653 10.302 13.2605 10.9222 13.3294C10.9747 13.3352 11.0268 13.3352 11.0785 13.3294C11.6986 13.2605 12.2716 12.9653 12.6876 12.5003C13.1037 12.0354 13.3337 11.4333 13.3337 10.8094V9.83464C13.3337 9.71216 13.2952 9.59278 13.2236 9.49341C13.1519 9.39405 13.0509 9.31976 12.9347 9.28105L11.1847 8.69772Z" fill="white"/>
</g>
<defs>
<clipPath id="clip0_2722_11980">
<rect width="14" height="14" fill="white" transform="translate(0.5 0.5)"/>
</clipPath>
</defs>
</svg>
