<svg width="15" height="15" viewBox="0 0 15 15" fill="none" xmlns="http://www.w3.org/2000/svg">
<g clip-path="url(#clip0_2722_11967)">
<path d="M12.3035 3.81864C12.5555 3.12155 11.88 2.44605 11.1829 2.69864L2.66332 5.7798C1.96391 6.03297 1.87932 6.9873 2.52274 7.36005L5.24224 8.93447L7.67066 6.50605C7.78067 6.39979 7.92803 6.341 8.08097 6.34233C8.23392 6.34366 8.38023 6.405 8.48838 6.51316C8.59654 6.62131 8.65789 6.76762 8.65922 6.92057C8.66054 7.07352 8.60175 7.22087 8.49549 7.33089L6.06707 9.7593L7.64207 12.4788C8.01424 13.1222 8.96857 13.0371 9.22174 12.3382L12.3035 3.81864Z" fill="white"/>
</g>
<defs>
<clipPath id="clip0_2722_11967">
<rect width="14" height="14" fill="white" transform="translate(0.5 0.5)"/>
</clipPath>
</defs>
</svg>
