<svg width="24" height="24" viewBox="0 0 24 24" fill="none" xmlns="http://www.w3.org/2000/svg">
<path d="M16 1.75V3H21.25C21.4489 3 21.6397 3.07902 21.7803 3.21967C21.921 3.36032 22 3.55109 22 3.75C22 3.94891 21.921 4.13968 21.7803 4.28033C21.6397 4.42098 21.4489 4.5 21.25 4.5H2.75C2.55109 4.5 2.36032 4.42098 2.21967 4.28033C2.07902 4.13968 2 3.94891 2 3.75C2 3.55109 2.07902 3.36032 2.21967 3.21967C2.36032 3.07902 2.55109 3 2.75 3H8V1.75C8 0.784 8.784 0 9.75 0H14.25C15.216 0 16 0.784 16 1.75ZM9.5 1.75V3H14.5V1.75C14.5 1.6837 14.4737 1.62011 14.4268 1.57322C14.3799 1.52634 14.3163 1.5 14.25 1.5H9.75C9.6837 1.5 9.62011 1.52634 9.57322 1.57322C9.52634 1.62011 9.5 1.6837 9.5 1.75ZM4.997 6.178C4.98845 6.07926 4.96041 5.9832 4.91452 5.89536C4.86862 5.80752 4.80576 5.72965 4.72959 5.66625C4.65341 5.60284 4.56542 5.55517 4.47071 5.52598C4.376 5.49678 4.27644 5.48665 4.17779 5.49617C4.07914 5.50568 3.98336 5.53465 3.89597 5.58141C3.80858 5.62817 3.73133 5.69178 3.66868 5.76857C3.60602 5.84536 3.55921 5.93381 3.53095 6.0288C3.50268 6.12379 3.49352 6.22345 3.504 6.322L4.916 20.92C4.95823 21.3527 5.16001 21.7542 5.48203 22.0462C5.80405 22.3383 6.22325 22.5001 6.658 22.5H17.342C17.7769 22.5 18.1962 22.3382 18.5183 22.0459C18.8403 21.7536 19.042 21.3519 19.084 20.919L20.497 6.322C20.5161 6.12388 20.4557 5.9263 20.3291 5.7727C20.2025 5.61911 20.0201 5.5221 19.822 5.503C19.6239 5.4839 19.4263 5.54429 19.2727 5.67088C19.1191 5.79747 19.0221 5.97988 19.003 6.178L17.591 20.774C17.585 20.8359 17.5562 20.8933 17.5102 20.9351C17.4641 20.9769 17.4042 21 17.342 21H6.658C6.59582 21 6.53587 20.9769 6.48983 20.9351C6.44379 20.8933 6.41497 20.8359 6.409 20.774L4.997 6.178Z" fill="black" fill-opacity="0.9"/>
<path d="M9.20633 7.50179C9.3047 7.49597 9.40325 7.5096 9.49635 7.54189C9.58945 7.57418 9.67528 7.62449 9.74892 7.68997C9.82257 7.75544 9.88259 7.83478 9.92555 7.92346C9.96852 8.01214 9.99359 8.10842 9.99933 8.20679L10.4993 16.7068C10.511 16.9056 10.4432 17.1008 10.3109 17.2497C10.1786 17.3985 9.99261 17.4886 9.79383 17.5003C9.59505 17.512 9.39978 17.4442 9.25097 17.3119C9.10216 17.1796 9.012 16.9936 9.00033 16.7948L8.50033 8.29479C8.49451 8.19642 8.50814 8.09787 8.54043 8.00477C8.57271 7.91167 8.62303 7.82585 8.68851 7.7522C8.75398 7.67856 8.83332 7.61854 8.922 7.57557C9.01068 7.5326 9.10696 7.50753 9.20533 7.50179H9.20633ZM15.4993 8.29479C15.511 8.09601 15.4432 7.90074 15.3109 7.75193C15.1786 7.60312 14.9926 7.51296 14.7938 7.50129C14.5951 7.48962 14.3998 7.5574 14.251 7.6897C14.1022 7.82201 14.012 8.00801 14.0003 8.20679L13.5003 16.7068C13.4887 16.9054 13.5564 17.1006 13.6886 17.2493C13.8208 17.398 14.0067 17.4881 14.2053 17.4998C14.404 17.5115 14.5991 17.4437 14.7478 17.3115C14.8966 17.1793 14.9867 16.9934 14.9983 16.7948L15.4993 8.29479Z" fill="black" fill-opacity="0.9"/>
</svg>
