<svg width="15" height="15" viewBox="0 0 15 15" fill="none" xmlns="http://www.w3.org/2000/svg">
<path d="M7.49995 4.87613C6.98077 4.87613 6.47326 5.03008 6.04158 5.31852C5.6099 5.60696 5.27345 6.01693 5.07477 6.49659C4.87609 6.97624 4.8241 7.50404 4.92539 8.01324C5.02667 8.52244 5.27668 8.99017 5.64379 9.35728C6.01091 9.7244 6.47864 9.9744 6.98784 10.0757C7.49704 10.177 8.02484 10.125 8.50449 9.92631C8.98415 9.72763 9.39412 9.39118 9.68256 8.9595C9.971 8.52782 10.1249 8.02031 10.1249 7.50113C10.1242 6.80516 9.84743 6.1379 9.35531 5.64577C8.86318 5.15365 8.19592 4.87685 7.49995 4.87613ZM7.49995 9.25113C7.15383 9.25113 6.81549 9.14849 6.5277 8.9562C6.23992 8.76391 6.01561 8.4906 5.88316 8.17082C5.75071 7.85105 5.71605 7.49919 5.78357 7.15972C5.8511 6.82025 6.01777 6.50843 6.26251 6.26369C6.50725 6.01895 6.81907 5.85228 7.15854 5.78475C7.49801 5.71723 7.84987 5.75189 8.16964 5.88434C8.48942 6.01679 8.76273 6.2411 8.95502 6.52888C9.14731 6.81667 9.24995 7.15501 9.24995 7.50113C9.24995 7.96526 9.06557 8.41038 8.73739 8.73857C8.4092 9.06675 7.96408 9.25113 7.49995 9.25113ZM13.5123 6.36418C13.5001 6.30257 13.4748 6.2443 13.4381 6.19335C13.4014 6.14239 13.3541 6.09993 13.2996 6.06886L11.6682 5.13918L11.6617 3.30058C11.6615 3.23726 11.6475 3.17474 11.6208 3.11733C11.5941 3.05993 11.5552 3.009 11.5069 2.96808C10.9152 2.46752 10.2337 2.08392 9.49878 1.83769C9.4409 1.8181 9.37957 1.81085 9.31872 1.81641C9.25787 1.82197 9.19886 1.84021 9.1455 1.86996L7.49995 2.7898L5.85276 1.86832C5.79936 1.8384 5.74028 1.82002 5.67933 1.81437C5.61838 1.80872 5.55693 1.81592 5.49893 1.8355C4.76456 2.08354 4.08389 2.4686 3.493 2.97027C3.44474 3.01113 3.40592 3.06196 3.37921 3.11927C3.35249 3.17658 3.33851 3.23899 3.33823 3.30222L3.33003 5.14246L1.6987 6.07214C1.64412 6.10322 1.59687 6.14567 1.56017 6.19663C1.52346 6.24759 1.49815 6.30585 1.48597 6.36746C1.33671 7.11771 1.33671 7.89002 1.48597 8.64027C1.49815 8.70188 1.52346 8.76014 1.56017 8.8111C1.59687 8.86205 1.64412 8.90451 1.6987 8.93558L3.33003 9.86527L3.33659 11.7039C3.33679 11.7672 3.35073 11.8297 3.37745 11.8871C3.40417 11.9445 3.44303 11.9954 3.49136 12.0364C4.08311 12.5369 4.76456 12.9205 5.49948 13.1668C5.55736 13.1863 5.61869 13.1936 5.67954 13.188C5.74039 13.1825 5.79939 13.1642 5.85276 13.1345L7.49995 12.2125L9.14714 13.1339C9.21231 13.1703 9.28579 13.1891 9.36042 13.1886C9.4082 13.1886 9.45566 13.1808 9.50096 13.1657C10.2353 12.918 10.9159 12.5333 11.5069 12.032C11.5552 11.9911 11.594 11.9403 11.6207 11.883C11.6474 11.8257 11.6614 11.7633 11.6617 11.7L11.6699 9.8598L13.3012 8.93011C13.3558 8.89904 13.403 8.85659 13.4397 8.80563C13.4764 8.75467 13.5017 8.69641 13.5139 8.6348C13.6624 7.88515 13.6618 7.11361 13.5123 6.36418ZM12.692 8.27332L11.1296 9.16199C11.0611 9.20091 11.0044 9.25759 10.9655 9.32605C10.9338 9.38074 10.9004 9.43871 10.8665 9.49339C10.8231 9.56236 10.8 9.64214 10.7998 9.72363L10.7916 11.4873C10.3716 11.8171 9.90376 12.0808 9.40417 12.2693L7.82807 11.3911C7.76264 11.3548 7.68902 11.336 7.61425 11.3364H7.40479C7.32653 11.3345 7.24917 11.3533 7.18057 11.3911L5.60339 12.2715C5.10273 12.0844 4.63357 11.822 4.21214 11.4933L4.20612 9.73238C4.20585 9.65073 4.18274 9.57079 4.1394 9.5016C4.1055 9.44691 4.07214 9.39222 4.04097 9.33425C4.00229 9.26476 3.94562 9.20695 3.8769 9.16691L2.31284 8.27605C2.23191 7.76407 2.23191 7.24256 2.31284 6.73058L3.87253 5.84027C3.94098 5.80134 3.99766 5.74466 4.03659 5.67621C4.06831 5.62152 4.10167 5.56355 4.13557 5.50886C4.17898 5.4399 4.2021 5.36011 4.20229 5.27863L4.2105 3.51496C4.63046 3.18517 5.09833 2.92145 5.59792 2.73293L7.17182 3.61121C7.24032 3.64918 7.31776 3.66806 7.39604 3.66589H7.59511C7.67336 3.6678 7.75073 3.64893 7.81932 3.61121L9.39651 2.73074C9.89717 2.91781 10.3663 3.18024 10.7878 3.50894L10.7938 5.26988C10.794 5.35152 10.8172 5.43147 10.8605 5.50066C10.8944 5.55535 10.9278 5.61004 10.9589 5.668C10.9976 5.7375 11.0543 5.79531 11.123 5.83535L12.6871 6.72621C12.7691 7.23858 12.77 7.76066 12.6898 8.27332H12.692Z" fill="white"/>
</svg>
